<svg xmlns="http://www.w3.org/2000/svg" width="1000" height="640.22803" version="1.0" viewBox="0 0 1268.772 1268.7731"><g style="fill:#000;fill-rule:evenodd;stroke:none;stroke-width:1;stroke-linecap:butt;stroke-linejoin:miter;stroke-dasharray:none"><path d="M25.335 20.227a1.496 1.496 0 0 0-.084.19c-2.27 4.288-6.729 7.21-11.816 7.21C6.055 27.627 0 21.445 0 13.814 0 6.223 6.055 0 13.434 0c5.11 0 9.588 2.985 11.838 7.338.063.084.083.126.147.252.021.021-4.29 3.133-4.331 3.07-.022-.084-.042-.147-.084-.19-1.241-3.09-4.184-5.15-7.57-5.087-4.52.042-8.242 3.784-8.242 8.43 0 4.689 3.722 8.474 8.242 8.474 3.28 0 6.14-2.018 7.443-4.878.063-.105.085-.19.127-.273l4.33 3.09z" style="fill:#000" transform="matrix(11.27608 0 0 11.27609 -356.49 957.249)"/></g><g style="fill:#000;fill-rule:evenodd;stroke:none;stroke-width:1;stroke-linecap:butt;stroke-linejoin:miter;stroke-dasharray:none"><path d="M0 0h5.172v9.65h13.583V0h5.214v26.849h-5.214V15.054H5.172v11.795H0V0Z" style="fill:#000" transform="matrix(11.27608 0 0 11.27609 -7.989 960.102)"/></g><g style="fill:#000;fill-rule:evenodd;stroke:none;stroke-width:1;stroke-linecap:butt;stroke-linejoin:miter;stroke-dasharray:none"><path d="M0 26.849V0h18.775v5.424H5.235v5.361h12.51v5.361H5.235v5.362h15.453v5.34H0z" style="fill:#000" transform="matrix(11.27608 0 0 11.27609 1085.431 960.102)"/></g><g style="fill:#000;fill-rule:evenodd;stroke:none;stroke-width:1;stroke-linecap:butt;stroke-linejoin:miter;stroke-dasharray:none"><path d="M0 26.849V0h5.256v21.508h14.592v5.34H0z" style="fill:#000" transform="matrix(11.27608 0 0 11.27609 1401.455 960.102)"/></g><g style="fill:#000;fill-rule:evenodd;stroke:none;stroke-width:1;stroke-linecap:butt;stroke-linejoin:miter;stroke-dasharray:none"><path d="M5.256 26.849H0V0h7.295l11.501 16.146V0h5.214v26.849h-4.163L5.256 6.602v20.247z" style="fill:#000" transform="matrix(11.27608 0 0 11.27609 707.998 960.102)"/></g><g style="fill:#000;fill-rule:evenodd;stroke:none;stroke-width:1;stroke-linecap:butt;stroke-linejoin:miter;stroke-dasharray:none"><path d="m15.559 5.424-4.583 10.723h9.376L15.56 5.423zM8.62 21.508l-2.396 5.34H0L11.9 0h7.275l11.984 26.849h-6.224l-2.417-5.341H8.62z" style="fill:#000" transform="matrix(11.27608 0 0 11.27609 309.46 960.102)"/></g><path d="M664.838 843.5c-63.588 36.767-139.659 58.62-220.708 58.62-165.833 0-311.081-90.407-389.64-224.462 0-.623-.608-.623-.608-1.245 0-.623-.637-.623-.637-1.246l63.59-33.032 63.588-32.439c.638.653 1.275 1.246 1.883 2.52 54.236 87.888 151.499 146.51 261.823 146.51 35.562 0 69.845-6.227 100.395-16.22-67.962-77.924-109.11-180.163-109.11-291.772 0-110.956 40.54-213.195 107.864-291.772-30.55-10.585-64.225-16.19-99.149-16.19-109.079 0-210.078 58.592-265.56 152.736-.637.623-.637 1.275-.637 1.868L50.146 231.312c.608-1.245 1.245-2.49 1.853-3.143C129.95 91.653 277.052 0 444.13 0c81.05 0 157.121 21.824 220.71 59.244C728.425 21.824 804.496 0 885.516 0c167.08 0 314.212 91.653 392.136 228.17.623.652 1.246 1.897 1.868 3.142l-127.798 66.064c0-.593 0-1.245-.623-1.868-55.478-94.144-156.471-152.735-265.583-152.735-34.894 0-68.57 5.604-99.12 16.19 67.325 78.576 107.864 180.815 107.864 291.771 0 111.609-41.147 213.848-109.109 291.772 30.55 9.993 64.834 16.22 100.365 16.22 110.357 0 207.615-58.622 261.847-146.51.623-1.274 1.246-1.867 1.868-2.52l63.573 32.44 63.603 33.031c0 .623-.623.623-.623 1.246 0 .622-.622.622-.622 1.245-78.547 134.055-223.81 224.463-389.646 224.463-81.02 0-157.091-21.854-220.679-58.622zm0-178.918c-52.382-55.479-86.031-130.912-86.031-213.848 0-81.66 31.795-155.849 86.031-211.327 54.236 55.478 86.031 129.667 86.031 211.327 0 82.936-33.678 158.37-86.03 213.848z" style="fill:#000;fill-rule:evenodd;stroke:none;stroke-width:1;stroke-linecap:butt;stroke-linejoin:miter;stroke-dasharray:none"/></svg>