<svg xmlns="http://www.w3.org/2000/svg" width="1993.000000pt" height="2041.000000pt" version="1.0" viewBox="0 0 1993.000000 2041.000000"><path d="M189 1.2c-13.8 2.8-31 7.6-42 11.5C69.1 40.6 16.3 102.9 5.4 179.6c-2.2 15.9-2.2 44.9 0 60.8 4.2 29.7 14.1 56 30.4 81.1 34.1 52.4 92.6 87.8 163.3 98.6 19.4 3 56.5 3.3 73.9.5 39.5-6.2 74.4-21.2 103-44.3 9.5-7.7 27-25.7 33.8-34.8l5.2-7v-39.8c0-37.6.1-40 2-43.6 1.7-3.5 5.8-6.8 15.6-12.7 1.3-.8 1.6-1.5.9-2.3-.7-.7-4.1-.7-11.5 0-9 1-80.1.7-90.4-.3-4.5-.5-4.1 1.7.9 4.6 6.6 3.9 11.6 8.6 13.1 12.3 1.1 2.6 1.4 14.9 1.4 62.1v58.9l-9.7 4.6c-18.3 8.5-40.7 14.7-65.3 17.9-5.2.6-18.9 1.2-30.5 1.2-17.9.1-22.7-.3-32.2-2.2-41.2-8.3-77.5-32.7-100.8-67.6-14.6-21.9-25-47.1-29.9-72.3-18.2-93.5 20.9-183.9 94.8-218.9 26.7-12.6 51.8-17 82.1-14.5 32.6 2.7 57 10.7 79.5 25.9 24.7 16.6 46.1 40.9 58.6 66.4 2.7 5.4 4.4 7.8 5.6 7.8 2.2 0 2.3-5.5.8-41.5l-1-24-5.8-5.4c-23.2-22-60.9-40.5-99-48.5C282.1 0 281.6 0 237.7.1c-24.3.1-46.2.5-48.7 1.1zM1102.4 2.1c-31.1 6.4-63 19.2-86.9 34.7-43.8 28.4-75.6 72-88 120.7-4.8 19.1-6 29.2-5.9 53 0 23.3 1.4 34.9 6.5 54.4 20.7 78.8 90.1 137.8 181.4 154 60.8 10.8 131.5-2 177.8-32.2 8-5.2 24.6-18.5 27.8-22.3 1.3-1.5 1.8-5.6 2.3-21.5.6-18.8.6-19.7-1.2-20.1-1.5-.4-3.2 1.2-7.3 7.1-3 4.2-11 13.3-17.9 20.2-27.3 27.5-55.3 40.4-100 46.1-5.2.6-19.4 1.2-31.5 1.2-23.8 0-32.1-1.2-50.8-7-23-7.3-47.2-22.5-65.1-40.9-21.3-22-40.1-59.4-47.1-93.7-3.6-18.3-4.9-33.8-4.2-53.8 1.2-33.9 7.2-58.6 21.3-87.5 29.3-60.3 88.7-96.5 152.4-93.1 30.2 1.7 52.1 7.2 73.7 18.5 14.3 7.6 24.4 15.3 38.3 29.1 13.8 13.7 22.6 25.5 31.6 42.2 4.3 7.7 6.4 10.7 7.8 10.8 1.8 0 1.9-.7 1.3-14.8-.4-8.1-1-22.9-1.3-33l-.7-18.4-8.1-7c-25.1-21.9-61.6-39.2-99-46.8-9-1.8-13.4-2-54-1.9-39.2.1-45.1.3-53.2 2zM1560.5 2.6c-73.1 15.9-127.6 55.6-157.7 114.9-15.1 29.7-21.1 56.1-21.1 92.5 0 36 6 62.9 20.5 91.3 21.7 42.6 53.6 73.5 98.3 95.2 55.9 27.2 117.5 33.3 181 18 33.8-8.1 66.9-25.1 88.3-45.2l7.1-6.8.7-19.7c.6-18.6.6-19.6-1.2-20-1.4-.2-3.5 1.8-7.8 7.7-3.2 4.4-10.2 12.4-15.5 17.9-32.3 33.1-67.1 46.9-125 49.2-47.2 2-86.8-12.4-119.3-43.4-23.1-22-41.4-54.8-50.2-90.1-9-35.4-8.4-80.3 1.4-114.1 21.8-75.5 78.8-124.4 149.8-128.6 27.6-1.6 61.8 4.8 85.6 16.1 30.2 14.3 61.2 45.9 77.2 78.7 1.9 3.9 3.4 5.8 4.6 5.8 2.2 0 2.2-1.5.8-39l-1.1-26.5-5.7-5.4c-12.6-11.9-34.8-26.2-52-33.5-13.4-5.7-33.8-12.3-47-15-12.1-2.6-12.6-2.6-56.5-2.5-42.7.1-44.6.2-55.2 2.5zM499 8.2c0 .8 2.9 3.4 6.4 5.8 6.4 4.3 8.8 7.3 10.9 13.3.7 2.2 1.3 42.5 1.7 127.7.8 126.1.9 129.6 4.6 148 9 43.5 36.7 79.7 75.9 99.3 25.1 12.4 63.2 20.7 95.5 20.7 10.3 0 32.7-2.4 41.8-4.5 18.4-4.2 40.4-13.5 55.7-23.6 15.8-10.4 34.5-32 44-50.8 4.8-9.7 10.2-24.8 13-36.4 5.5-22.8 5.5-24.4 6.5-137.2 1.1-120.2 1.7-139.8 4.7-146.6 2-4.5 6.9-9.2 13.1-12.3 1.7-.9 3.2-2.4 3.2-3.3 0-1.3-.8-1.5-4.7-.9-15.8 2.4-36.9 2.4-53.5 0-6.8-1-6.3 1.1 1.5 6.1 7.3 4.8 10.2 8.7 11.6 15.8 1.6 7.8 3 80.8 3.3 167.2.3 70.2.1 77.9-1.5 87.8-6.1 36.6-23.2 65.8-49 83.5-23.1 15.9-48.2 22-86.2 20.9-26.4-.8-40.7-3.9-59.2-12.8-34.2-16.4-52.4-48.5-56.3-99.1-1.2-16.4-1.3-192.3 0-224.3.5-12.7 1.4-24.7 2-26.7 1.5-5.1 5.3-9.4 11.7-13 7.1-4 7.2-6.3.1-5.5-2.9.4-14.6 1.2-26 1.8-19.6 1.1-48.2.3-65.6-1.8-4.2-.5-5.2-.3-5.2.9zM1861 7.9c0 .6 1.2 1.8 2.8 2.8 6.7 4.2 11.6 8.9 13.5 13.2 1.9 4.1 2.2 7.4 2.8 30.1.9 32.5 1 278.2 0 312-.6 24.4-.7 25.7-3.1 30.5-1.9 3.8-4 6-9 9.4-5.7 3.8-8.4 6.9-5.5 6.4.6-.1 7.3-.7 15-1.4 13.7-1.2 61.6-.7 79.3.8 9.1.8 9.2-.1.2-5.5-9.3-5.7-10.9-9.2-12.1-26.4-1.1-17.3-1.1-322.3 0-339.3 1.2-18.5 3-21.9 15.4-29.4 5.3-3.2 4.8-4.5-1.5-3.7-16.6 1.9-49.4 2.8-70.3 1.7-12.1-.6-23.2-1.4-24.7-1.7-1.8-.4-2.8-.2-2.8.5zM719.5 849.7c-25.4 1.3-60.7 6.1-89 12-144.7 30.1-275.1 115.3-361.9 236.6-30.2 42.3-56.2 90.9-73.2 137.2-2.5 6.6-4.9 13-5.4 14.1-2.2 5.3-11.3 36.4-14.9 50.9-12.4 49.9-17.4 91.8-17.4 144.5 0 29.2 1 46.8 3.9 71 20.8 173.9 117 329.4 263.9 426.5 40.5 26.8 88.4 50.5 133.5 66 87 29.9 180.4 39.3 271 27.4 59.8-7.9 122.3-26.2 176.8-52l10.5-4.9 13.6 6.4c51.6 24.3 108.4 41.3 165.6 49.5 30.7 4.4 47.6 5.5 84.5 5.6 34.8 0 48.7-.7 75.5-4.1 240.4-30 439.5-204.1 502-438.8 7.8-29.6 13.2-59.3 17.2-95.6 2.5-23.3 2.5-91.1 0-114.5-6-54.5-16-98.9-33-145.5-76.7-211.7-267.6-363.1-490.2-389-51.1-5.9-106.9-5.2-157 2.1-57.3 8.2-112.3 24.4-164.1 48.1l-14.2 6.5-13.8-6.4c-65.8-30.5-136.5-48.2-212.9-53.3-13.7-.9-56.4-1.1-71-.3zm74 117.4c31.7 2.3 69.2 9.2 98.8 18l7.1 2.1-3.4 3c-79.1 69-136.3 151.5-172 247.9-4.9 13.2-15 44.4-15 46.3 0 .3 27.6.6 61.4.6h61.4l2.7-7.3c33.6-89.7 90.5-165.2 166.1-220.2 6.8-5 13.7-9.8 15.3-10.8l2.9-1.7 12.6 9c57.1 40.5 103.7 91.8 138.6 152.5 11.6 20.1 28.1 56 35.3 76.7.6 1.7 4.5 1.8 62.2 1.8h61.5l-.6-2.8c-1.8-7.1-13.2-41.2-18-53.6-35.6-91.3-90.7-169.7-164.7-234-4.8-4.2-6.4-6.2-5.5-6.7 2.9-1.6 31.9-9 46.2-11.8 37.6-7.4 63-9.5 104.4-8.8 42.1.7 68.3 4 106 13.3 101.7 25 193.9 84.2 259.4 166.5 93 116.9 126.2 269.1 90.2 413.8-21.2 85.4-64.3 161.1-127.1 223.3-18.2 18.1-29.6 28-47.8 41.8-69.5 52.4-148.5 83.7-236.7 93.7-22.1 2.5-80.2 2.5-101.3 0-17.9-2.2-38.7-5.7-54.5-9.2-16.1-3.6-41.1-10.6-40.8-11.4.2-.4 4.4-4.2 9.3-8.5 13.2-11.6 38-36.3 51.4-51.1 81.2-90.7 132.4-204.7 146.6-327 .8-7.2 1.5-14.7 1.5-16.8v-3.7h-283v58c0 31.9.1 58.1.3 58.1.1.1 30.9.7 68.4 1.3 37.5.6 68.4 1.4 68.8 1.8 1.5 1.5-14.9 38.5-26.6 60.1-35.4 65.2-83.6 119.6-144.8 163.3l-11.5 8.2-6-4.1c-23.1-15.5-45.1-34-69.1-58.1-31.7-31.8-56.7-64.7-78.5-103.4-12-21.5-31.3-64.3-29.6-65.9.4-.5 31.4-1.3 68.9-1.9 37.5-.6 68.3-1.2 68.5-1.3.1 0 .2-26.2.2-58.1v-58H689.1l.5 5.7c12.3 140.8 71.8 269.7 169.4 367.3 9.1 9.1 21.4 20.8 27.4 26l10.9 9.5-7.4 2.3c-29.2 8.9-66 15.5-101.9 18.3-19.5 1.5-65.2.6-84.9-1.6-132.6-14.8-253-83.9-332.6-191-111.2-149.4-125.2-351-35.7-513.7 41.7-75.9 101.7-137.9 177-183 14.6-8.7 49.8-26 65.7-32.3 69.6-27.5 140.1-38.1 216-32.4z"/></svg>